<svg xmlns="http://www.w3.org/2000/svg" viewBox="0 0 130.08 141.84"><defs><style>.cls-1{fill:#70449b;}.cls-2{fill:#ffd967;}.cls-3{fill:#fff;}</style></defs><g id="Layer_2" data-name="Layer 2"><g id="Layer_1-2" data-name="Layer 1"><path class="cls-1" d="M66.2,39.56c.63-.74,1.2-1.29,1.65-1.93,1.68-2.39,3.28-4.85,5-7.23C79,21.85,87.15,16.18,97.53,14A19.57,19.57,0,0,1,110.2,15.5a32.63,32.63,0,0,1,10.27,7.8c7.3,8.1,9.83,17.76,9.59,28.39a69.7,69.7,0,0,1-3.18,18.84q-2.35,7.73-4.48,15.53c-1.65,6.14-2.09,12.46-2.43,18.78-.29,5.45-.48,10.9-.83,16.35a25.82,25.82,0,0,1-.87,5.31c-2.25,8.19-7.71,13-16,14.66a47.64,47.64,0,0,1-14.74.21c-9-1-17.93-2.5-26.9-3.64-5.76-.73-11.56-1.14-17.32-.1-2.68.48-5.3,1.29-8,1.86-3.12.66-6.25,1.31-9.41,1.79a25.61,25.61,0,0,1-4.55,0,29.58,29.58,0,0,0-3.92-.12c-1.12.34-2.13-.52-2.41-1.84a16.51,16.51,0,0,1-.36-3.57q.18-15.68,1.4-31.32c.55-7,.79-14,1-20.94.25-8.66.09-17.33.53-26a112.26,112.26,0,0,1,2.1-16,19,19,0,0,1,5.61-10.17,15,15,0,0,1,8.9-4.07c5.54-.65,7.84,7.45,13,9.13s12.35-1.79,16.64,1.39C64.62,38.34,65.34,38.9,66.2,39.56ZM20,131.65a29,29,0,0,0,5,.3c6.47-.77,12.92-1.79,19.4-2.52a56.59,56.59,0,0,1,9.56-.34c4.45.25,8.88.83,13.31,1.39,5.15.65,10.3,1.32,15.42,2.18a69,69,0,0,0,15.31,1,20.38,20.38,0,0,0,5.09-.91,11.05,11.05,0,0,0,7.75-8.4,42.26,42.26,0,0,0,.85-9.12A196.62,196.62,0,0,1,113,91.72a212.34,212.34,0,0,1,5.12-25.23,58.16,58.16,0,0,0,2.13-17c-.31-7.66-2.54-14.49-7.84-20.2C107,23.41,99.71,21.4,92.37,25A31.74,31.74,0,0,0,79.74,35.44c-1.51,2.19-3,4.43-4.57,6.56a24.32,24.32,0,0,1-3.49,3.82,8.06,8.06,0,0,1-10.48.53c-1.1-.75-2.15-1.58-3.19-2.41a41,41,0,0,0-20.18-8.49c-5.84-.79-8.9,1.13-11.42,5.93a13.64,13.64,0,0,0-1.5,4.11,113.52,113.52,0,0,0-1.69,13.06c-.37,8.58-.25,17.18-.49,25.77-.19,6.72-.54,13.44-1,20.15-.49,7.64-1.17,15.27-1.73,22.91C19.93,128.69,20,130,20,131.65Z"/><path class="cls-2" d="M20,131.65c0-1.63-.08-3,0-4.27.56-7.64,1.24-15.27,1.73-22.91.43-6.71.78-13.43,1-20.15.24-8.59.12-17.19.49-25.77a113.52,113.52,0,0,1,1.69-13.06,13.64,13.64,0,0,1,1.5-4.11c2.52-4.8,5.58-6.72,11.42-5.93A41,41,0,0,1,58,43.94c1,.83,2.09,1.66,3.19,2.41a8.06,8.06,0,0,0,10.48-.53A24.32,24.32,0,0,0,75.17,42c1.61-2.13,3.06-4.37,4.57-6.56A31.74,31.74,0,0,1,92.37,25c7.34-3.55,14.61-1.54,20.08,4.37,5.3,5.71,7.53,12.54,7.84,20.2a58.16,58.16,0,0,1-2.13,17A212.34,212.34,0,0,0,113,91.72a196.62,196.62,0,0,0-1.38,23.52,42.26,42.26,0,0,1-.85,9.12,11.05,11.05,0,0,1-7.75,8.4,20.38,20.38,0,0,1-5.09.91,69,69,0,0,1-15.31-1c-5.12-.86-10.27-1.53-15.42-2.18-4.43-.56-8.86-1.14-13.31-1.39a56.59,56.59,0,0,0-9.56.34c-6.48.73-12.93,1.75-19.4,2.52A29,29,0,0,1,20,131.65Zm50.3-61.09c-.12-3.67-.23-7.52-.38-11.37a4.19,4.19,0,0,0-.33-1.92,1.82,1.82,0,0,0-1.42-.77,2.34,2.34,0,0,0-1.31,1,2,2,0,0,0-.15,1.17c.09,3.13.19,6.25.28,9.38,0,.9,0,1.8,0,2.69-5.77.76-9.93,4.07-14.11,7.54-.23-.65-.43-1.14-.57-1.65-1.08-3.64-2.13-7.28-3.2-10.91a20.34,20.34,0,0,0-.66-2.09,1.58,1.58,0,0,0-2-1.11c-.93.34-1.07,1.1-1,2a6.45,6.45,0,0,0,.21,1c1.25,4.28,2.47,8.57,3.78,12.83,1,3.38,1.09,3.37-.49,6.52a.66.66,0,0,1-.14.15c-3,.19-3.92,1.5-3.33,4.48a16.66,16.66,0,0,0,2.69,6c.43.66.87,1.31,1.27,1.93L43.83,106a10.65,10.65,0,0,0-.8,1.39,1.54,1.54,0,0,0,.53,2.09,1.57,1.57,0,0,0,2.13-.48c.37-.47.68-1,1-1.49l4.93-7.57,8.68,4.68c-.43,1.69-.88,3.49-1.35,5.28-.42,1.61-.92,3.2-1.3,4.82a1.58,1.58,0,0,0,3,1,7.61,7.61,0,0,0,.45-1.32q.6-2.11,1.17-4.23c.43-1.59.83-3.18,1.27-4.85A28,28,0,0,0,78.3,104c1.71,3.3,3.32,6.43,5,9.55a17,17,0,0,0,1.07,1.91,1.45,1.45,0,0,0,2,.49,1.47,1.47,0,0,0,.79-1.85,8,8,0,0,0-.56-1.28q-1.48-2.94-3-5.87c-.7-1.35-1.42-2.69-2.16-4.09.35-.27.59-.49.86-.66a25.13,25.13,0,0,0,8-8.29,13.39,13.39,0,0,0,1.68-4.64A6.56,6.56,0,0,0,90,83c-1.09-1.08-2.1-2.24-3.23-3.27-1.66-1.52-3.39-3-5.17-4.48l1-1.94c1.18-2.24,2.37-4.47,3.54-6.71a7.24,7.24,0,0,0,.61-1.47,1.53,1.53,0,0,0-.88-2,1.45,1.45,0,0,0-1.88.67,12.59,12.59,0,0,0-.85,1.58L78.83,73.5Z"/><path class="cls-3" d="M56.94,32.25a23.89,23.89,0,0,0,3.48-3.83C62,26.3,63.48,24.06,65,21.87A31.74,31.74,0,0,1,77.62,11.38C85,7.83,92.23,9.84,97.7,15.74c5.3,5.72,7.53,12.55,7.84,20.21a58.2,58.2,0,0,1-2.13,17,212.58,212.58,0,0,0-5.12,25.22,196.74,196.74,0,0,0-1.38,23.52,41.73,41.73,0,0,1-.85,9.13,11,11,0,0,1-7.75,8.39,19.87,19.87,0,0,1-5.08.92,69.66,69.66,0,0,1-15.32-1c-5.12-.86-10.27-1.52-15.42-2.17-4.43-.56-8.86-1.15-13.31-1.4a58.75,58.75,0,0,0-9.56.34c-6.48.74-12.92,1.76-19.4,2.52a27.91,27.91,0,0,1-5-.29c0-1.64-.08-3,0-4.28C5.84,106.17,6.52,98.54,7,90.9c.44-6.71.78-13.43,1-20.16.24-8.58.13-17.18.49-25.77a113.07,113.07,0,0,1,1.69-13,13.64,13.64,0,0,1,1.5-4.11c2.53-4.8,5.59-6.73,11.42-5.93a40.89,40.89,0,0,1,20.18,8.49c1.05.82,2.09,1.66,3.19,2.41M55.56,57c-.12-3.66-.23-7.51-.37-11.36a4.47,4.47,0,0,0-.33-1.92,1.82,1.82,0,0,0-1.43-.77c-.47,0-1,.56-1.31,1A1.94,1.94,0,0,0,52,45.09c.08,3.12.18,6.25.27,9.38,0,.9,0,1.8,0,2.69-5.77.76-9.93,4.07-14.11,7.53-.23-.64-.42-1.14-.57-1.64q-1.6-5.46-3.2-10.92A21.14,21.14,0,0,0,33.71,50a1.56,1.56,0,1,0-3,.85,6.55,6.55,0,0,0,.2,1c1.25,4.28,2.47,8.56,3.78,12.82,1,3.39,1.09,3.37-.49,6.53a.47.47,0,0,1-.14.14c-3,.2-3.91,1.51-3.33,4.48a16.88,16.88,0,0,0,2.69,6l1.28,1.92-5.62,8.68a10,10,0,0,0-.79,1.38,1.53,1.53,0,0,0,.53,2.1,1.56,1.56,0,0,0,2.12-.48c.37-.47.68-1,1-1.49,1.66-2.56,3.33-5.11,4.93-7.57L45.56,91c-.43,1.69-.88,3.49-1.35,5.28-.42,1.61-.92,3.2-1.3,4.82a1.58,1.58,0,0,0,3,1,6.94,6.94,0,0,0,.45-1.33c.4-1.4.8-2.81,1.17-4.23.43-1.58.83-3.17,1.27-4.85,5.11,1.06,9.92.32,14.76-1.27,1.7,3.3,3.31,6.42,4.94,9.55a17,17,0,0,0,1.07,1.91,1.55,1.55,0,0,0,2.74-1.36,7.3,7.3,0,0,0-.56-1.28c-1-2-2-3.93-3-5.88-.69-1.35-1.42-2.68-2.16-4.08a10.08,10.08,0,0,1,.86-.66,25.13,25.13,0,0,0,8-8.29,13.39,13.39,0,0,0,1.68-4.64,6.56,6.56,0,0,0-1.85-6.24c-1.09-1.08-2.1-2.24-3.23-3.27-1.66-1.52-3.39-2.95-5.17-4.49l1-1.93c1.18-2.24,2.37-4.47,3.53-6.71A6.92,6.92,0,0,0,72,51.56a1.53,1.53,0,0,0-.88-2,1.45,1.45,0,0,0-1.88.67,12.59,12.59,0,0,0-.85,1.58c-1.46,2.75-2.93,5.49-4.32,8.11Z"/><path class="cls-1" d="M55.56,57l8.52,3c1.39-2.62,2.86-5.36,4.32-8.11a12.59,12.59,0,0,1,.85-1.58,1.45,1.45,0,0,1,1.88-.67,1.53,1.53,0,0,1,.88,2A6.92,6.92,0,0,1,71.4,53c-1.16,2.24-2.35,4.47-3.53,6.71l-1,1.93c1.78,1.54,3.51,3,5.17,4.49,1.13,1,2.14,2.19,3.23,3.27a6.56,6.56,0,0,1,1.85,6.24,13.39,13.39,0,0,1-1.68,4.64,25.13,25.13,0,0,1-8,8.29,10.08,10.08,0,0,0-.86.66c.74,1.4,1.47,2.73,2.16,4.08,1,2,2,3.92,3,5.88a7.3,7.3,0,0,1,.56,1.28,1.55,1.55,0,0,1-2.74,1.36A17,17,0,0,1,68.5,100c-1.63-3.13-3.24-6.25-4.94-9.55C58.72,92,53.91,92.73,48.8,91.67c-.44,1.68-.84,3.27-1.27,4.85-.37,1.42-.77,2.83-1.17,4.23a6.94,6.94,0,0,1-.45,1.33,1.58,1.58,0,0,1-3-1c.38-1.62.88-3.21,1.3-4.82.47-1.79.92-3.59,1.35-5.28l-8.68-4.68c-1.6,2.46-3.27,5-4.93,7.57-.33.5-.64,1-1,1.49a1.56,1.56,0,0,1-2.12.48,1.53,1.53,0,0,1-.53-2.1,10,10,0,0,1,.79-1.38l5.62-8.68-1.28-1.92a16.88,16.88,0,0,1-2.69-6c-.58-3,.38-4.28,3.33-4.48a.47.47,0,0,0,.14-.14c1.58-3.16,1.53-3.14.49-6.53-1.31-4.26-2.53-8.54-3.78-12.82a6.55,6.55,0,0,1-.2-1,1.56,1.56,0,1,1,3-.85,21.14,21.14,0,0,1,.66,2.09q1.6,5.46,3.2,10.92c.15.5.34,1,.57,1.64,4.18-3.46,8.34-6.77,14.11-7.53,0-.89,0-1.79,0-2.69-.09-3.13-.19-6.26-.27-9.38a1.94,1.94,0,0,1,.14-1.17c.33-.43.84-1,1.31-1a1.82,1.82,0,0,1,1.43.77,4.47,4.47,0,0,1,.33,1.92C55.33,49.47,55.44,53.32,55.56,57ZM36.2,75.53A15,15,0,0,0,44,84a22.6,22.6,0,0,0,15.69,1.88,20.51,20.51,0,0,0,10.81-6.37A8.07,8.07,0,0,0,72.66,75,2.89,2.89,0,0,0,72,72.52C67.89,67.88,63.2,64,57.12,62.23a12,12,0,0,0-9.62,1.16A21.58,21.58,0,0,0,38,73,20.12,20.12,0,0,1,36.2,75.53Z"/><path class="cls-2" d="M36.2,75.53A20.12,20.12,0,0,0,38,73a21.58,21.58,0,0,1,9.52-9.63,12,12,0,0,1,9.62-1.16C63.2,64,67.89,67.88,72,72.52A2.89,2.89,0,0,1,72.66,75a8.07,8.07,0,0,1-2.21,4.59,20.51,20.51,0,0,1-10.81,6.37A22.6,22.6,0,0,1,44,84,15,15,0,0,1,36.2,75.53Zm23-.84a7.41,7.41,0,0,0-4.42-6.53,3.17,3.17,0,0,0-3.53.51,8.6,8.6,0,0,0-2.89,4.66c-.71,2.87,1.51,6.23,4.29,6.61,2.35.32,6-2.31,6.48-4.64A4.1,4.1,0,0,0,59.19,74.69Z"/><path class="cls-1" d="M59.19,74.69a4.1,4.1,0,0,1-.07.61c-.45,2.33-4.13,5-6.48,4.64-2.78-.38-5-3.74-4.29-6.61a8.6,8.6,0,0,1,2.89-4.66,3.17,3.17,0,0,1,3.53-.51A7.41,7.41,0,0,1,59.19,74.69Z"/><path class="cls-1" d="M51.29,25.78c.59-.68,1.2-1.28,1.69-2,1.75-2.49,3.4-5.07,5.2-7.53A39.54,39.54,0,0,1,81.63.59,20,20,0,0,1,95.4,2.09,32.12,32.12,0,0,1,104.58,9c7.76,8.24,10.51,18.18,10.2,29.23a71.1,71.1,0,0,1-3.23,18.75c-1.64,5.39-3.24,10.79-4.63,16.25a89.56,89.56,0,0,0-2.18,17.73c-.28,5.37-.49,10.73-.81,16.09a28.82,28.82,0,0,1-.72,4.71,19.57,19.57,0,0,1-17.09,15.5c-6.3.82-12.57.26-18.83-.57-9.2-1.22-18.39-2.49-27.61-3.54a38.57,38.57,0,0,0-15,1.27c-4.14,1.16-8.33,2.19-12.53,3.13-2.38.54-4.8,1.09-7.28.54-.13,0-.26,0-.39-.07C.29,126.74.2,126.19.07,122.72c-.12-3.11-.09-6.24.08-9.35.42-8.14,1-16.28,1.42-24.42.38-7.88.63-15.77.85-23.66.21-7.29.09-14.6.52-21.87A126.5,126.5,0,0,1,5,28.05a19.66,19.66,0,0,1,4-8.57c3.75-4.79,8.81-6.52,14.62-6a43.86,43.86,0,0,1,20.78,7.36C46.66,22.46,48.9,24.09,51.29,25.78ZM7.3,86.17c-.13,3.1-.54,6.19-.12,9.32.62,4.61,1.25,9.19,3.19,13.48a12.7,12.7,0,0,0,8.73,7.19c2.3.63,4.49.09,6.69-.28A49.62,49.62,0,0,1,39.64,115q13.14,1.47,26.23,3.29c5.26.72,10.5,1.66,15.82,1.34a26.84,26.84,0,0,0,6.25-1,10.84,10.84,0,0,0,7.69-8.36,41.33,41.33,0,0,0,.84-9.08,195.4,195.4,0,0,1,1.29-22.82A201.79,201.79,0,0,1,103,52.48a56,56,0,0,0,1.82-19.68,28.23,28.23,0,0,0-8.71-18.25c-5.21-5.06-11.77-6.43-18.5-3.36A30.94,30.94,0,0,0,65.05,21.31c-1.43,2-2.71,4.1-4.18,6.05a40.58,40.58,0,0,1-4,4.64,7.52,7.52,0,0,1-7.35,2,13.64,13.64,0,0,1-4-2c-2.21-1.45-4.25-3.18-6.49-4.59a36.53,36.53,0,0,0-18.57-5.74,8.28,8.28,0,0,0-7.18,3.54,15,15,0,0,0-3.06,6.61,108.56,108.56,0,0,0-1.68,12.8c-.38,7.81-.38,15.64-.54,23.46"/></g></g></svg>